<?xml version="1.0" encoding="UTF-8"?>
<!DOCTYPE svg PUBLIC "-//W3C//DTD SVG 1.1//EN" "http://www.w3.org/Graphics/SVG/1.1/DTD/svg11.dtd">
<!-- Creator: CorelDRAW -->
<svg xmlns="http://www.w3.org/2000/svg" xml:space="preserve" width="135px" height="135px" version="1.1" style="shape-rendering:geometricPrecision; text-rendering:geometricPrecision; image-rendering:optimizeQuality; fill-rule:evenodd; clip-rule:evenodd"
viewBox="0 0 133.34 133.3"
 xmlns:xlink="http://www.w3.org/1999/xlink"
 xmlns:xodm="http://www.corel.com/coreldraw/odm/2003">
 <defs>
  <style type="text/css">
   <![CDATA[
    .fil0 {fill:#99A0AA}
    .fil1 {fill:#B3B8C0}
    .fil2 {fill:#CCD0D5;fill-opacity:0.501961}
   ]]>
  </style>
 </defs>
 <g id="Camada_x0020_1">
  <metadata id="CorelCorpID_0Corel-Layer"/>
  <g id="_2676537341392">
   <path class="fil0" d="M48.8 66.65c-4.15,-7.17 -6.53,-15.5 -6.53,-24.39 -18.06,0 -33.83,9.81 -42.27,24.39 8.44,14.58 24.21,24.39 42.27,24.39 0,-8.88 2.38,-17.21 6.53,-24.39z"/>
   <path class="fil0" d="M42.27 42.26c8.89,0 17.22,2.38 24.4,6.53 7.18,-4.15 15.51,-6.53 24.4,-6.53 0,-18.06 -9.82,-33.82 -24.4,-42.26 -14.59,8.44 -24.4,24.2 -24.4,42.26z"/>
   <path class="fil0" d="M91.07 42.26c0,8.89 -2.38,17.22 -6.53,24.39 4.15,7.18 6.53,15.51 6.53,24.39 18.06,0 33.83,-9.81 42.27,-24.39 -8.44,-14.58 -24.21,-24.39 -42.27,-24.39z"/>
   <path class="fil0" d="M91.07 91.04c-8.89,0 -17.22,-2.37 -24.4,-6.52 -7.18,4.15 -15.51,6.52 -24.4,6.52 0,18.06 9.81,33.83 24.4,42.26 14.58,-8.43 24.4,-24.2 24.4,-42.26z"/>
   <path class="fil1" d="M66.67 84.52c7.41,-4.29 13.58,-10.46 17.87,-17.87 -4.29,-7.4 -10.46,-13.58 -17.87,-17.86 -7.41,4.28 -13.59,10.46 -17.87,17.86 4.28,7.41 10.46,13.58 17.87,17.87z"/>
   <path class="fil2" d="M18.02 84.6c-4.38,-5.7 -8.4,-11.69 -12.01,-17.95 3.62,-6.25 7.63,-12.25 12.01,-17.95 -7.47,4.29 -13.71,10.5 -18.02,17.95 4.31,7.46 10.54,13.67 18.02,17.95z"/>
   <path class="fil2" d="M48.71 18.02c5.7,-4.38 11.7,-8.4 17.96,-12.01 6.25,3.61 12.25,7.63 17.96,12.01 -4.29,-7.47 -10.5,-13.71 -17.96,-18.02 -7.46,4.31 -13.67,10.54 -17.96,18.02z"/>
   <path class="fil2" d="M115.31 48.7c4.38,5.7 8.4,11.7 12.02,17.95 -3.62,6.26 -7.64,12.25 -12.02,17.96 7.48,-4.29 13.71,-10.5 18.03,-17.96 -4.32,-7.46 -10.55,-13.67 -18.03,-17.95z"/>
   <path class="fil2" d="M84.63 115.28c-5.71,4.38 -11.71,8.4 -17.96,12.02 -6.26,-3.62 -12.26,-7.63 -17.96,-12.01 4.29,7.47 10.5,13.7 17.96,18.01 7.46,-4.31 13.67,-10.54 17.96,-18.02z"/>
  </g>
 </g>
</svg>
