<?xml version="1.0" encoding="UTF-8"?>
<!DOCTYPE svg PUBLIC "-//W3C//DTD SVG 1.1//EN" "http://www.w3.org/Graphics/SVG/1.1/DTD/svg11.dtd">
<!-- Creator: CorelDRAW -->
<svg xmlns="http://www.w3.org/2000/svg" xml:space="preserve" width="135px" height="135px" version="1.1" style="shape-rendering:geometricPrecision; text-rendering:geometricPrecision; image-rendering:optimizeQuality; fill-rule:evenodd; clip-rule:evenodd"
viewBox="0 0 133.14 133.11"
 xmlns:xlink="http://www.w3.org/1999/xlink"
 xmlns:xodm="http://www.corel.com/coreldraw/odm/2003">
 <defs>
  <style type="text/css">
   <![CDATA[
    .fil1 {fill:#6666FF}
    .fil0 {fill:#0F0FFF;fill-opacity:0.501961}
    .fil2 {fill:#6666FF;fill-opacity:0.501961}
   ]]>
  </style>
 </defs>
 <g id="Camada_x0020_1">
  <metadata id="CorelCorpID_0Corel-Layer"/>
  <path class="fil0" d="M48.73 66.56c-4.15,-7.17 -6.52,-15.49 -6.52,-24.36 -18.04,0 -33.79,9.79 -42.21,24.36 8.42,14.56 24.17,24.35 42.21,24.35 0,-8.87 2.37,-17.19 6.52,-24.35z"/>
  <path class="fil0" d="M42.21 42.2c8.87,0 17.19,2.37 24.36,6.51 7.17,-4.14 15.49,-6.51 24.36,-6.51 0,-18.03 -9.79,-33.78 -24.36,-42.2 -14.56,8.42 -24.36,24.17 -24.36,42.2z"/>
  <path class="fil0" d="M90.93 42.2c0,8.87 -2.37,17.19 -6.51,24.36 4.14,7.16 6.51,15.48 6.51,24.35 18.04,0 33.79,-9.79 42.21,-24.35 -8.42,-14.57 -24.17,-24.36 -42.21,-24.36z"/>
  <path class="fil0" d="M90.93 90.91c-8.87,0 -17.19,-2.37 -24.36,-6.51 -7.17,4.14 -15.49,6.51 -24.36,6.51 0,18.03 9.8,33.78 24.36,42.2 14.57,-8.42 24.36,-24.17 24.36,-42.2z"/>
  <path class="fil1" d="M66.57 84.4c7.4,-4.28 13.57,-10.45 17.85,-17.84 -4.28,-7.4 -10.45,-13.57 -17.85,-17.85 -7.4,4.28 -13.56,10.45 -17.84,17.85 4.28,7.39 10.44,13.56 17.84,17.84z"/>
  <path class="fil2" d="M5.86 66.56c7.85,-11.7 21.2,-19.39 36.35,-19.39 0.08,0 0.17,0 0.25,0 -0.17,-1.64 -0.25,-3.29 -0.25,-4.97 1.68,0 3.33,0.08 4.97,0.25 0,-0.09 0,-0.17 0,-0.25 0,-15.15 7.69,-28.49 19.39,-36.35 11.7,7.86 19.39,21.2 19.39,36.35 0,0.08 0,0.16 0,0.25 1.64,-0.17 3.3,-0.25 4.97,-0.25 0,1.68 -0.08,3.33 -0.25,4.97 0.09,0 0.17,0 0.25,0 15.15,0 28.5,7.69 36.36,19.39 -7.86,11.69 -21.21,19.39 -36.36,19.39 -0.08,0 -0.16,0 -0.25,-0.01 0.17,1.64 0.25,3.3 0.25,4.97 -1.67,0 -3.33,-0.08 -4.97,-0.25 0,0.09 0,0.17 0,0.25 0,15.15 -7.69,28.5 -19.39,36.35 -11.7,-7.85 -19.39,-21.2 -19.39,-36.35 0,-0.08 0,-0.16 0,-0.25 -1.64,0.17 -3.29,0.25 -4.97,0.25 0,-1.67 0.08,-3.33 0.25,-4.97 -0.08,0.01 -0.17,0.01 -0.25,0.01 -15.15,0 -28.5,-7.7 -36.35,-19.39zm60.71 -60.71c-1.51,-1.01 -3.08,-1.93 -4.71,-2.75 -11.93,8.88 -19.65,23.09 -19.65,39.1 -16.02,0 -30.23,7.72 -39.11,19.65 0.82,1.63 1.74,3.2 2.76,4.71 -1.02,1.5 -1.94,3.07 -2.76,4.7 8.88,11.93 23.09,19.65 39.11,19.65 0,16.01 7.72,30.22 19.65,39.1 1.63,-0.82 3.2,-1.74 4.71,-2.75 1.51,1.01 3.08,1.93 4.71,2.75 11.93,-8.88 19.65,-23.09 19.65,-39.1 16.02,0 30.23,-7.72 39.11,-19.65 -0.82,-1.63 -1.74,-3.2 -2.75,-4.7 1.01,-1.51 1.93,-3.08 2.75,-4.71 -8.88,-11.93 -23.09,-19.65 -39.11,-19.65 0,-16.01 -7.72,-30.22 -19.65,-39.1 -1.63,0.82 -3.2,1.74 -4.71,2.75z"/>
 </g>
</svg>
