<?xml version="1.0" encoding="UTF-8"?>
<!DOCTYPE svg PUBLIC "-//W3C//DTD SVG 1.1//EN" "http://www.w3.org/Graphics/SVG/1.1/DTD/svg11.dtd">
<!-- Creator: CorelDRAW -->
<svg xmlns="http://www.w3.org/2000/svg" xml:space="preserve" width="102px" height="19px" version="1.1" style="shape-rendering:geometricPrecision; text-rendering:geometricPrecision; image-rendering:optimizeQuality; fill-rule:evenodd; clip-rule:evenodd"
viewBox="0 0 99.76 18.41"
 xmlns:xlink="http://www.w3.org/1999/xlink"
 xmlns:xodm="http://www.corel.com/coreldraw/odm/2003">
 <defs>
  <style type="text/css">
   <![CDATA[
    .fil0 {fill:#6666FF;fill-rule:nonzero}
   ]]>
  </style>
 </defs>
 <g id="Camada_x0020_1">
  <metadata id="CorelCorpID_0Corel-Layer"/>
  <path class="fil0" d="M4.74 5.21c0,0.36 0.14,0.67 0.41,0.92 0.26,0.25 0.62,0.47 1.06,0.66 0.44,0.19 0.94,0.36 1.5,0.52 0.57,0.16 1.14,0.33 1.73,0.52 0.59,0.19 1.16,0.42 1.72,0.69 0.56,0.26 1.07,0.59 1.51,0.98 0.44,0.39 0.79,0.86 1.06,1.41 0.27,0.56 0.4,1.22 0.4,2 0,0.88 -0.18,1.66 -0.53,2.35 -0.35,0.68 -0.84,1.25 -1.45,1.72 -0.62,0.47 -1.34,0.82 -2.17,1.06 -0.83,0.25 -1.71,0.37 -2.64,0.37 -1.52,0 -2.93,-0.31 -4.22,-0.91 -1.28,-0.61 -2.33,-1.51 -3.12,-2.7l3.32 -2.2c0.4,0.76 0.96,1.33 1.68,1.72 0.73,0.39 1.52,0.59 2.36,0.59 0.78,0 1.43,-0.16 1.95,-0.48 0.52,-0.32 0.78,-0.76 0.78,-1.31 0,-0.5 -0.24,-0.9 -0.7,-1.18 -0.47,-0.29 -1.05,-0.54 -1.74,-0.77 -0.69,-0.22 -1.44,-0.45 -2.26,-0.7 -0.81,-0.24 -1.56,-0.56 -2.25,-0.96 -0.69,-0.39 -1.27,-0.92 -1.74,-1.56 -0.47,-0.65 -0.7,-1.5 -0.7,-2.53 0,-0.87 0.17,-1.64 0.51,-2.31 0.33,-0.67 0.79,-1.24 1.38,-1.7 0.59,-0.46 1.28,-0.81 2.08,-1.05 0.79,-0.24 1.64,-0.36 2.54,-0.36 1.38,0 2.66,0.28 3.82,0.83 1.17,0.55 2.12,1.37 2.84,2.46l-3.32 2.21c-0.34,-0.66 -0.81,-1.16 -1.4,-1.5 -0.59,-0.33 -1.23,-0.5 -1.94,-0.5 -0.71,0 -1.3,0.16 -1.77,0.48 -0.46,0.32 -0.7,0.73 -0.7,1.23zm20.53 9.7c0.83,0 1.6,-0.22 2.31,-0.65 0.71,-0.43 1.27,-1.06 1.69,-1.89l3.29 2.17c-0.78,1.26 -1.81,2.22 -3.09,2.88 -1.28,0.66 -2.69,0.99 -4.22,0.99 -1.21,0 -2.35,-0.21 -3.4,-0.61 -1.05,-0.41 -1.98,-1.01 -2.78,-1.79 -0.79,-0.79 -1.42,-1.75 -1.87,-2.89 -0.46,-1.14 -0.69,-2.45 -0.69,-3.92 0,-1.47 0.23,-2.77 0.69,-3.91 0.45,-1.14 1.08,-2.11 1.87,-2.89 0.8,-0.79 1.73,-1.38 2.78,-1.79 1.05,-0.41 2.19,-0.61 3.4,-0.61 1.53,0 2.94,0.33 4.22,0.98 1.28,0.66 2.31,1.62 3.09,2.88l-3.29 2.18c-0.42,-0.83 -0.98,-1.46 -1.69,-1.89 -0.71,-0.44 -1.48,-0.65 -2.31,-0.65 -0.65,0 -1.27,0.12 -1.84,0.37 -0.57,0.26 -1.07,0.62 -1.5,1.11 -0.43,0.48 -0.77,1.07 -1.01,1.77 -0.25,0.7 -0.37,1.51 -0.37,2.43 0,0.91 0.12,1.73 0.37,2.45 0.24,0.71 0.58,1.31 1.01,1.8 0.43,0.48 0.93,0.85 1.5,1.1 0.57,0.25 1.19,0.38 1.84,0.38zm10.08 -14.78l4.05 0 0 10.47c0,1.4 0.27,2.47 0.83,3.2 0.55,0.74 1.4,1.11 2.54,1.11 1.14,0 1.98,-0.37 2.54,-1.11 0.55,-0.73 0.83,-1.8 0.83,-3.2l0 -10.47 4.04 0 0 10.6c0,2.53 -0.61,4.44 -1.83,5.73 -1.21,1.3 -3.07,1.95 -5.56,1.95 -2.52,0 -4.39,-0.65 -5.61,-1.95 -1.22,-1.29 -1.83,-3.2 -1.83,-5.73l0 -10.6zm24.99 14.65c0.98,0 1.74,-0.17 2.27,-0.51 0.52,-0.34 0.79,-0.85 0.79,-1.54 0,-0.68 -0.27,-1.18 -0.79,-1.52 -0.53,-0.34 -1.29,-0.5 -2.27,-0.5l-2.57 0 0 4.07 2.57 0zm-2.57 -11.15l0 3.97 1.87 0c0.93,0 1.65,-0.17 2.16,-0.5 0.51,-0.33 0.77,-0.83 0.77,-1.5 0,-0.66 -0.26,-1.15 -0.77,-1.48 -0.51,-0.33 -1.23,-0.49 -2.16,-0.49l-1.87 0zm-4.04 14.65l0 -18.15 5.7 0c1.09,0 2.08,0.1 2.96,0.3 0.88,0.2 1.64,0.49 2.27,0.89 0.63,0.4 1.11,0.9 1.45,1.52 0.34,0.61 0.5,1.33 0.5,2.16 0,0.99 -0.23,1.83 -0.7,2.52 -0.46,0.69 -1.13,1.21 -1.99,1.55 1.1,0.3 1.97,0.81 2.59,1.53 0.62,0.73 0.93,1.66 0.93,2.8 0,0.83 -0.17,1.55 -0.5,2.17 -0.34,0.61 -0.82,1.12 -1.44,1.51 -0.62,0.4 -1.38,0.7 -2.26,0.9 -0.88,0.2 -1.86,0.3 -2.93,0.3l-6.58 0zm23.01 -3.5c0.99,0 1.75,-0.17 2.27,-0.51 0.53,-0.34 0.79,-0.85 0.79,-1.54 0,-0.68 -0.26,-1.18 -0.79,-1.52 -0.52,-0.34 -1.28,-0.5 -2.27,-0.5l-2.56 0 0 4.07 2.56 0zm-2.56 -11.15l0 3.97 1.86 0c0.94,0 1.66,-0.17 2.17,-0.5 0.51,-0.33 0.76,-0.83 0.76,-1.5 0,-0.66 -0.25,-1.15 -0.76,-1.48 -0.51,-0.33 -1.23,-0.49 -2.17,-0.49l-1.86 0zm-4.05 14.65l0 -18.15 5.71 0c1.09,0 2.07,0.1 2.95,0.3 0.88,0.2 1.64,0.49 2.27,0.89 0.63,0.4 1.12,0.9 1.45,1.52 0.34,0.61 0.51,1.33 0.51,2.16 0,0.99 -0.23,1.83 -0.7,2.52 -0.47,0.69 -1.13,1.21 -2,1.55 1.11,0.3 1.97,0.81 2.59,1.53 0.63,0.73 0.94,1.66 0.94,2.8 0,0.83 -0.17,1.55 -0.51,2.17 -0.33,0.61 -0.81,1.12 -1.44,1.51 -0.62,0.4 -1.37,0.7 -2.25,0.9 -0.88,0.2 -1.86,0.3 -2.93,0.3l-6.59 0zm20.24 -13.07c0,0.36 0.14,0.67 0.41,0.92 0.26,0.25 0.62,0.47 1.06,0.66 0.44,0.19 0.94,0.36 1.5,0.52 0.56,0.16 1.14,0.33 1.73,0.52 0.59,0.19 1.16,0.42 1.72,0.69 0.56,0.26 1.06,0.59 1.51,0.98 0.44,0.39 0.79,0.86 1.06,1.41 0.27,0.56 0.4,1.22 0.4,2 0,0.88 -0.18,1.66 -0.53,2.35 -0.36,0.68 -0.84,1.25 -1.45,1.72 -0.62,0.47 -1.34,0.82 -2.17,1.06 -0.83,0.25 -1.71,0.37 -2.64,0.37 -1.52,0 -2.93,-0.31 -4.22,-0.91 -1.28,-0.61 -2.33,-1.51 -3.12,-2.7l3.32 -2.2c0.4,0.76 0.96,1.33 1.68,1.72 0.73,0.39 1.52,0.59 2.36,0.59 0.78,0 1.43,-0.16 1.95,-0.48 0.52,-0.32 0.78,-0.76 0.78,-1.31 0,-0.5 -0.24,-0.9 -0.71,-1.18 -0.46,-0.29 -1.04,-0.54 -1.73,-0.77 -0.69,-0.22 -1.45,-0.45 -2.26,-0.7 -0.81,-0.24 -1.56,-0.56 -2.25,-0.96 -0.7,-0.39 -1.27,-0.92 -1.74,-1.56 -0.47,-0.65 -0.7,-1.5 -0.7,-2.53 0,-0.87 0.17,-1.64 0.5,-2.31 0.34,-0.67 0.8,-1.24 1.39,-1.7 0.59,-0.46 1.28,-0.81 2.08,-1.05 0.79,-0.24 1.64,-0.36 2.54,-0.36 1.38,0 2.66,0.28 3.82,0.83 1.17,0.55 2.11,1.37 2.84,2.46l-3.32 2.21c-0.34,-0.66 -0.81,-1.16 -1.4,-1.5 -0.59,-0.33 -1.23,-0.5 -1.94,-0.5 -0.71,0 -1.3,0.16 -1.77,0.48 -0.46,0.32 -0.7,0.73 -0.7,1.23z"/>
 </g>
</svg>
