<?xml version="1.0" encoding="UTF-8"?>
<!DOCTYPE svg PUBLIC "-//W3C//DTD SVG 1.1//EN" "http://www.w3.org/Graphics/SVG/1.1/DTD/svg11.dtd">
<!-- Creator: CorelDRAW -->
<svg xmlns="http://www.w3.org/2000/svg" xml:space="preserve" width="139px" height="31px" version="1.1" style="shape-rendering:geometricPrecision; text-rendering:geometricPrecision; image-rendering:optimizeQuality; fill-rule:evenodd; clip-rule:evenodd"
viewBox="0 0 131.14 29.62"
 xmlns:xlink="http://www.w3.org/1999/xlink"
 xmlns:xodm="http://www.corel.com/coreldraw/odm/2003">
 <defs>
  <style type="text/css">
   <![CDATA[
    .fil1 {fill:#0F172A}
    .fil0 {fill:#334155;fill-rule:nonzero}
   ]]>
  </style>
   <mask id="id0">
  <linearGradient id="id1" gradientUnits="userSpaceOnUse" x1="70.51" y1="56.33" x2="70.51" y2="2.76">
   <stop offset="0" style="stop-opacity:1; stop-color:white"/>
   <stop offset="1" style="stop-opacity:0; stop-color:white"/>
  </linearGradient>
    <rect style="fill:url(#id1)" x="-0.43" y="-1.11" width="132.68" height="21.51"/>
   </mask>
 </defs>
 <g id="Camada_x0020_1">
  <metadata id="CorelCorpID_0Corel-Layer"/>
  <path class="fil0" d="M6.97 23.07c-1.34,0 -2.61,-0.21 -3.8,-0.62 -1.18,-0.41 -2.11,-0.95 -2.79,-1.62 -0.25,-0.25 -0.38,-0.56 -0.38,-0.91 0,-0.47 0.2,-0.85 0.59,-1.14 0.38,-0.28 0.72,-0.42 1.04,-0.42 0.4,0 0.77,0.18 1.13,0.53 0.37,0.41 0.94,0.77 1.69,1.08 0.75,0.3 1.55,0.45 2.4,0.45 1.13,0 2,-0.19 2.63,-0.56 0.62,-0.37 0.93,-0.87 0.93,-1.5 0,-0.6 -0.31,-1.11 -0.92,-1.51 -0.61,-0.4 -1.65,-0.74 -3.11,-1.01 -3.8,-0.73 -5.7,-2.27 -5.7,-4.64 0,-0.96 0.29,-1.78 0.86,-2.44 0.58,-0.67 1.33,-1.17 2.26,-1.5 0.93,-0.34 1.92,-0.5 2.96,-0.5 1.29,0 2.44,0.2 3.46,0.62 1.02,0.41 1.82,0.98 2.42,1.7 0.25,0.31 0.38,0.63 0.38,0.94 0,0.33 -0.17,0.64 -0.5,0.91 -0.22,0.16 -0.5,0.24 -0.83,0.24 -0.52,0 -0.98,-0.19 -1.4,-0.56 -0.49,-0.45 -1.02,-0.77 -1.57,-0.96 -0.55,-0.18 -1.23,-0.28 -2.02,-0.28 -0.91,0 -1.65,0.16 -2.24,0.46 -0.58,0.3 -0.87,0.73 -0.87,1.28 0,0.39 0.1,0.72 0.3,0.98 0.19,0.27 0.57,0.51 1.12,0.74 0.56,0.22 1.36,0.44 2.41,0.66 2.15,0.43 3.68,1.02 4.58,1.79 0.9,0.76 1.35,1.75 1.35,2.97 0,0.9 -0.25,1.72 -0.74,2.45 -0.5,0.73 -1.22,1.31 -2.18,1.73 -0.96,0.42 -2.11,0.64 -3.46,0.64zm12.02 -0.12c-0.44,0 -0.8,-0.14 -1.09,-0.43 -0.28,-0.28 -0.43,-0.64 -0.43,-1.07l0 -13.08c0,-0.45 0.15,-0.81 0.43,-1.08 0.29,-0.28 0.65,-0.41 1.09,-0.41 0.45,0 0.82,0.13 1.09,0.41 0.28,0.27 0.42,0.63 0.42,1.08l0 13.08c0,0.43 -0.14,0.79 -0.42,1.07 -0.27,0.29 -0.64,0.43 -1.09,0.43zm0 -18.69c-0.54,0 -1,-0.19 -1.38,-0.57 -0.39,-0.38 -0.58,-0.84 -0.58,-1.37 0,-0.53 0.19,-0.98 0.58,-1.36 0.38,-0.39 0.84,-0.58 1.38,-0.58 0.53,0 0.99,0.19 1.37,0.58 0.39,0.38 0.58,0.83 0.58,1.36 0,0.53 -0.19,0.99 -0.58,1.37 -0.38,0.38 -0.84,0.57 -1.37,0.57zm14.5 2.5c1.56,0 2.96,0.35 4.2,1.04 1.23,0.7 2.2,1.66 2.9,2.89 0.71,1.24 1.06,2.65 1.06,4.24l0 6.34c0,1.55 -0.35,2.96 -1.04,4.23 -0.69,1.28 -1.67,2.28 -2.92,3.02 -1.26,0.73 -2.68,1.1 -4.26,1.1 -1.42,0 -2.75,-0.28 -3.97,-0.84 -1.23,-0.56 -2.26,-1.36 -3.09,-2.39 -0.22,-0.28 -0.32,-0.55 -0.32,-0.83 0,-0.41 0.2,-0.76 0.62,-1.06 0.27,-0.17 0.55,-0.26 0.83,-0.26 0.49,0 0.9,0.21 1.22,0.62 0.53,0.68 1.2,1.21 2.01,1.57 0.81,0.36 1.73,0.54 2.76,0.54 0.97,0 1.85,-0.23 2.64,-0.69 0.79,-0.46 1.42,-1.13 1.9,-2.02 0.47,-0.9 0.71,-1.96 0.71,-3.19l0 -1.44c-0.61,1.07 -1.42,1.92 -2.43,2.53 -1.01,0.6 -2.15,0.91 -3.41,0.91 -1.47,0 -2.78,-0.35 -3.93,-1.05 -1.16,-0.69 -2.06,-1.66 -2.7,-2.89 -0.65,-1.24 -0.97,-2.64 -0.97,-4.2 0,-1.59 0.35,-3 1.04,-4.24 0.69,-1.23 1.66,-2.19 2.91,-2.89 1.24,-0.69 2.66,-1.04 4.24,-1.04zm0 13.66c1.01,0 1.91,-0.23 2.72,-0.7 0.79,-0.47 1.42,-1.13 1.86,-1.96 0.45,-0.83 0.67,-1.78 0.67,-2.83 0,-1.06 -0.22,-2.01 -0.67,-2.85 -0.44,-0.85 -1.07,-1.5 -1.86,-1.97 -0.81,-0.47 -1.71,-0.71 -2.72,-0.71 -1.01,0 -1.91,0.24 -2.71,0.71 -0.81,0.47 -1.43,1.12 -1.89,1.97 -0.45,0.84 -0.68,1.79 -0.68,2.85 0,1.05 0.23,2 0.68,2.83 0.46,0.83 1.08,1.49 1.89,1.96 0.8,0.47 1.7,0.7 2.71,0.7zm20.02 -13.66c1.53,0 2.91,0.36 4.14,1.07 1.24,0.72 2.22,1.7 2.94,2.94 0.72,1.24 1.08,2.63 1.08,4.16l0 6.55c0,0.43 -0.14,0.79 -0.43,1.07 -0.29,0.29 -0.65,0.43 -1.08,0.43 -0.44,0 -0.8,-0.14 -1.08,-0.43 -0.29,-0.28 -0.44,-0.64 -0.44,-1.07l0 -1.09c-0.69,0.84 -1.53,1.5 -2.52,1.97 -0.98,0.47 -2.05,0.71 -3.2,0.71 -1.42,0 -2.71,-0.36 -3.87,-1.06 -1.16,-0.71 -2.07,-1.68 -2.73,-2.93 -0.66,-1.24 -0.99,-2.63 -0.99,-4.15 0,-1.53 0.35,-2.92 1.06,-4.16 0.72,-1.24 1.7,-2.22 2.96,-2.94 1.25,-0.71 2.64,-1.07 4.16,-1.07zm0 13.66c0.99,0 1.89,-0.24 2.69,-0.72 0.8,-0.48 1.43,-1.13 1.88,-1.97 0.46,-0.83 0.68,-1.76 0.68,-2.8 0,-1.04 -0.22,-1.98 -0.68,-2.82 -0.45,-0.85 -1.08,-1.51 -1.88,-1.99 -0.8,-0.48 -1.7,-0.72 -2.69,-0.72 -0.98,0 -1.88,0.24 -2.68,0.72 -0.8,0.48 -1.44,1.14 -1.9,1.99 -0.47,0.84 -0.7,1.78 -0.7,2.82 0,1.04 0.23,1.97 0.7,2.8 0.46,0.84 1.1,1.49 1.9,1.97 0.8,0.48 1.7,0.72 2.68,0.72zm12.58 -4.02c-0.43,0 -0.79,-0.14 -1.08,-0.42 -0.29,-0.27 -0.43,-0.62 -0.43,-1.05 0,-0.43 0.14,-0.79 0.43,-1.08 0.29,-0.28 0.65,-0.42 1.08,-0.42l6.62 0c0.43,0 0.79,0.14 1.06,0.42 0.28,0.29 0.42,0.65 0.42,1.08 0,0.43 -0.14,0.78 -0.42,1.05 -0.27,0.28 -0.63,0.42 -1.06,0.42l-6.62 0zm25.07 -9.55c0.45,0 0.82,0.13 1.09,0.41 0.28,0.27 0.42,0.63 0.42,1.09l0 13.1c0,0.43 -0.14,0.79 -0.42,1.07 -0.27,0.29 -0.64,0.43 -1.09,0.43 -0.44,0 -0.8,-0.14 -1.09,-0.43 -0.28,-0.28 -0.43,-0.64 -0.43,-1.07l0 -0.32c-0.63,0.62 -1.38,1.11 -2.25,1.45 -0.87,0.34 -1.8,0.51 -2.79,0.51 -1.36,0 -2.59,-0.29 -3.68,-0.88 -1.08,-0.58 -1.94,-1.44 -2.55,-2.57 -0.61,-1.12 -0.92,-2.48 -0.92,-4.07l0 -7.22c0,-0.44 0.15,-0.79 0.43,-1.08 0.29,-0.28 0.65,-0.42 1.08,-0.42 0.44,0 0.8,0.14 1.09,0.42 0.28,0.29 0.43,0.64 0.43,1.08l0 7.22c0,1.59 0.43,2.79 1.29,3.6 0.86,0.82 2,1.22 3.42,1.22 0.84,0 1.59,-0.16 2.27,-0.5 0.69,-0.33 1.22,-0.78 1.6,-1.35 0.39,-0.57 0.58,-1.2 0.58,-1.91l0 -8.28c0,-0.46 0.15,-0.82 0.43,-1.09 0.29,-0.28 0.65,-0.41 1.09,-0.41zm15.6 -0.09c1.42,0 2.71,0.35 3.87,1.06 1.16,0.7 2.07,1.68 2.73,2.92 0.66,1.24 0.99,2.63 0.99,4.16 0,1.53 -0.35,2.91 -1.06,4.15 -0.72,1.25 -1.7,2.23 -2.96,2.94 -1.25,0.72 -2.64,1.08 -4.16,1.08 -1.53,0 -2.9,-0.36 -4.14,-1.08 -1.24,-0.71 -2.22,-1.69 -2.94,-2.94 -0.72,-1.24 -1.08,-2.62 -1.08,-4.15l0 -13.4c0,-0.45 0.14,-0.81 0.43,-1.09 0.29,-0.27 0.65,-0.41 1.08,-0.41 0.46,0 0.82,0.14 1.1,0.41 0.28,0.28 0.42,0.64 0.42,1.09l0 7.93c0.69,-0.84 1.53,-1.5 2.52,-1.97 0.98,-0.47 2.05,-0.7 3.2,-0.7zm-0.59 13.66c0.99,0 1.88,-0.24 2.68,-0.72 0.8,-0.48 1.43,-1.14 1.9,-1.98 0.46,-0.84 0.7,-1.78 0.7,-2.82 0,-1.04 -0.24,-1.98 -0.7,-2.81 -0.47,-0.83 -1.1,-1.49 -1.9,-1.97 -0.8,-0.48 -1.69,-0.72 -2.68,-0.72 -0.99,0 -1.89,0.24 -2.69,0.72 -0.8,0.48 -1.43,1.14 -1.88,1.97 -0.46,0.83 -0.68,1.77 -0.68,2.81 0,1.04 0.22,1.98 0.68,2.82 0.45,0.84 1.08,1.5 1.88,1.98 0.8,0.48 1.7,0.72 2.69,0.72zm18.6 2.65c-1.35,0 -2.61,-0.21 -3.8,-0.62 -1.19,-0.41 -2.12,-0.95 -2.79,-1.62 -0.26,-0.25 -0.39,-0.56 -0.39,-0.91 0,-0.47 0.2,-0.85 0.6,-1.14 0.37,-0.28 0.72,-0.42 1.04,-0.42 0.39,0 0.77,0.18 1.12,0.53 0.38,0.41 0.94,0.77 1.69,1.08 0.76,0.3 1.56,0.45 2.41,0.45 1.12,0 2,-0.19 2.62,-0.56 0.63,-0.37 0.94,-0.87 0.94,-1.5 0,-0.6 -0.31,-1.11 -0.92,-1.51 -0.62,-0.4 -1.65,-0.74 -3.12,-1.01 -3.8,-0.73 -5.69,-2.27 -5.69,-4.64 0,-0.96 0.28,-1.78 0.86,-2.44 0.57,-0.67 1.32,-1.17 2.25,-1.5 0.93,-0.34 1.92,-0.5 2.97,-0.5 1.28,0 2.44,0.2 3.45,0.62 1.02,0.41 1.83,0.98 2.42,1.7 0.26,0.31 0.39,0.63 0.39,0.94 0,0.33 -0.17,0.64 -0.51,0.91 -0.21,0.16 -0.49,0.24 -0.83,0.24 -0.51,0 -0.98,-0.19 -1.39,-0.56 -0.5,-0.45 -1.02,-0.77 -1.57,-0.96 -0.56,-0.18 -1.23,-0.28 -2.02,-0.28 -0.91,0 -1.66,0.16 -2.24,0.46 -0.58,0.3 -0.88,0.73 -0.88,1.28 0,0.39 0.1,0.72 0.3,0.98 0.2,0.27 0.57,0.51 1.13,0.74 0.55,0.22 1.35,0.44 2.4,0.66 2.16,0.43 3.68,1.02 4.58,1.79 0.9,0.76 1.35,1.75 1.35,2.97 0,0.9 -0.24,1.72 -0.74,2.45 -0.49,0.73 -1.22,1.31 -2.18,1.73 -0.96,0.42 -2.11,0.64 -3.45,0.64z"/>
  <path class="fil1" style="mask:url(#id0)" d="M3.59 11.11c0,-0.55 0.29,-0.98 0.87,-1.28 0.59,-0.3 1.33,-0.46 2.24,-0.46 0.79,0 1.47,0.1 2.02,0.28 0.55,0.19 1.08,0.51 1.57,0.96 0.42,0.37 0.88,0.56 1.4,0.56 0.33,0 0.61,-0.08 0.83,-0.24 0.33,-0.27 0.5,-0.58 0.5,-0.91 0,-0.31 -0.13,-0.63 -0.38,-0.94 -0.6,-0.72 -1.4,-1.29 -2.42,-1.7 -1.02,-0.42 -2.17,-0.62 -3.46,-0.62 -1.04,0 -2.03,0.16 -2.96,0.5 -0.93,0.33 -1.68,0.83 -2.26,1.5 -0.57,0.66 -0.86,1.48 -0.86,2.44 0,2.37 1.9,3.91 5.7,4.64 0.26,0.05 0.5,0.1 0.73,0.15 1.68,-0.18 3.39,-0.35 5.11,-0.51 -0.07,-0.07 -0.14,-0.14 -0.22,-0.2 -0.9,-0.77 -2.43,-1.36 -4.58,-1.79 -1.05,-0.22 -1.85,-0.44 -2.41,-0.66 -0.55,-0.23 -0.93,-0.47 -1.12,-0.74 -0.2,-0.26 -0.3,-0.59 -0.3,-0.98zm16.77 -7.42c0.39,-0.38 0.58,-0.84 0.58,-1.37 0,-0.53 -0.19,-0.98 -0.58,-1.36 -0.38,-0.39 -0.84,-0.58 -1.37,-0.58 -0.54,0 -1,0.19 -1.38,0.58 -0.39,0.38 -0.58,0.83 -0.58,1.36 0,0.53 0.19,0.99 0.58,1.37 0.38,0.38 0.84,0.57 1.38,0.57 0.53,0 0.99,-0.19 1.37,-0.57zm101.23 3.57c-0.93,0.33 -1.68,0.83 -2.25,1.5 -0.58,0.66 -0.86,1.48 -0.86,2.44 0,2.37 1.89,3.91 5.69,4.64 1.47,0.27 2.5,0.61 3.12,1.01 0.61,0.4 0.92,0.91 0.92,1.51 0,0.15 -0.02,0.3 -0.06,0.43 0.97,0.17 1.93,0.33 2.87,0.5 0.08,-0.33 0.12,-0.68 0.12,-1.04 0,-1.22 -0.45,-2.21 -1.35,-2.97 -0.9,-0.77 -2.42,-1.36 -4.58,-1.79 -1.05,-0.22 -1.85,-0.44 -2.4,-0.66 -0.56,-0.23 -0.93,-0.47 -1.13,-0.74 -0.2,-0.26 -0.3,-0.59 -0.3,-0.98 0,-0.55 0.3,-0.98 0.88,-1.28 0.58,-0.3 1.33,-0.46 2.24,-0.46 0.79,0 1.46,0.1 2.02,0.28 0.55,0.19 1.07,0.51 1.57,0.96 0.41,0.37 0.88,0.56 1.39,0.56 0.34,0 0.62,-0.08 0.83,-0.24 0.34,-0.27 0.51,-0.58 0.51,-0.91 0,-0.31 -0.13,-0.63 -0.39,-0.94 -0.59,-0.72 -1.4,-1.29 -2.42,-1.7 -1.01,-0.42 -2.17,-0.62 -3.45,-0.62 -1.05,0 -2.04,0.16 -2.97,0.5zm-23.58 -5.76l0 13.4c0,0.07 0,0.13 0,0.2 0.98,0.08 1.95,0.17 2.92,0.25 -0.01,-0.15 -0.01,-0.3 -0.01,-0.45 0,-1.04 0.22,-1.98 0.68,-2.81 0.45,-0.83 1.08,-1.49 1.88,-1.97 0.8,-0.48 1.7,-0.72 2.69,-0.72 0.99,0 1.88,0.24 2.68,0.72 0.8,0.48 1.43,1.14 1.9,1.97 0.46,0.83 0.7,1.77 0.7,2.81 0,0.53 -0.06,1.03 -0.19,1.51 0.98,0.12 1.95,0.23 2.9,0.35 0.13,-0.6 0.19,-1.22 0.19,-1.86 0,-1.53 -0.33,-2.92 -0.99,-4.16 -0.66,-1.24 -1.57,-2.22 -2.73,-2.92 -1.16,-0.71 -2.45,-1.06 -3.87,-1.06 -1.15,0 -2.22,0.23 -3.2,0.7 -0.99,0.47 -1.83,1.13 -2.52,1.97l0 -7.93c0,-0.45 -0.14,-0.81 -0.42,-1.09 -0.28,-0.27 -0.64,-0.41 -1.1,-0.41 -0.43,0 -0.79,0.14 -1.08,0.41 -0.29,0.28 -0.43,0.64 -0.43,1.09zm-8.37 6.85l0 6.14c1.02,0.06 2.03,0.13 3.03,0.2l0 -6.34c0,-0.46 -0.14,-0.82 -0.42,-1.09 -0.27,-0.28 -0.64,-0.41 -1.09,-0.41 -0.44,0 -0.8,0.13 -1.09,0.41 -0.28,0.27 -0.43,0.63 -0.43,1.09zm-12.19 0l0 5.51c1.01,0.04 2.02,0.08 3.03,0.13l0 -5.64c0,-0.44 -0.15,-0.79 -0.43,-1.08 -0.29,-0.28 -0.65,-0.42 -1.09,-0.42 -0.43,0 -0.79,0.14 -1.08,0.42 -0.28,0.29 -0.43,0.64 -0.43,1.08zm-23.94 -1.59c-1.52,0 -2.91,0.36 -4.16,1.07 -1.26,0.72 -2.24,1.7 -2.96,2.94 -0.5,0.87 -0.82,1.82 -0.97,2.84 0.98,-0.02 1.97,-0.04 2.96,-0.06 0.12,-0.51 0.3,-0.99 0.55,-1.44 0.46,-0.85 1.1,-1.51 1.9,-1.99 0.8,-0.48 1.7,-0.72 2.68,-0.72 0.99,0 1.89,0.24 2.69,0.72 0.8,0.48 1.43,1.14 1.88,1.99 0.23,0.43 0.41,0.88 0.52,1.37 0.99,0 1.98,0.01 2.96,0.01 -0.16,-0.97 -0.48,-1.88 -0.97,-2.72 -0.72,-1.24 -1.7,-2.22 -2.94,-2.94 -1.23,-0.71 -2.61,-1.07 -4.14,-1.07zm-24.26 1.04c-1.25,0.7 -2.22,1.66 -2.91,2.89 -0.62,1.12 -0.97,2.37 -1.03,3.77 0.97,-0.06 1.95,-0.12 2.93,-0.17 0.07,-0.81 0.29,-1.54 0.65,-2.21 0.46,-0.85 1.08,-1.5 1.89,-1.97 0.8,-0.47 1.7,-0.71 2.71,-0.71 1.01,0 1.91,0.24 2.72,0.71 0.79,0.47 1.42,1.12 1.86,1.97 0.28,0.53 0.48,1.11 0.58,1.73 0.97,-0.04 1.95,-0.07 2.92,-0.1 -0.13,-1.1 -0.46,-2.11 -0.98,-3.02 -0.7,-1.23 -1.67,-2.19 -2.9,-2.89 -1.24,-0.69 -2.64,-1.04 -4.2,-1.04 -1.58,0 -3,0.35 -4.24,1.04zm-11.78 0.57l0 6.66c1.01,-0.08 2.01,-0.16 3.03,-0.24l0 -6.42c0,-0.45 -0.14,-0.81 -0.42,-1.08 -0.27,-0.28 -0.64,-0.41 -1.09,-0.41 -0.44,0 -0.8,0.13 -1.09,0.41 -0.28,0.27 -0.43,0.63 -0.43,1.08z"/>
 </g>
</svg>
